<svg width="1168" height="557" viewBox="0 0 1168 557" fill="none" xmlns="http://www.w3.org/2000/svg">
<g clip-path="url(#clip0_206_98)">
<path d="M196 0H60C26.8629 0 0 26.8629 0 60V196C0 229.137 26.8629 256 60 256H196C229.137 256 256 229.137 256 196V60C256 26.8629 229.137 0 196 0Z" fill="#262626"/>
<path d="M128.001 146.951C138.305 146.951 146.657 138.598 146.657 128.295C146.657 117.992 138.305 109.639 128.001 109.639C117.698 109.639 109.345 117.992 109.345 128.295C109.345 138.598 117.698 146.951 128.001 146.951Z" fill="#00D8FF"/>
<path fill-rule="evenodd" clip-rule="evenodd" d="M128.002 90.3633C153.05 90.3633 176.319 93.9575 193.864 99.9976C215.003 107.275 228 118.306 228 128.295C228 138.704 214.226 150.423 191.525 157.944C174.363 163.63 151.779 166.598 128.002 166.598C103.624 166.598 80.5389 163.812 63.1834 157.881C41.2255 150.376 28 138.506 28 128.295C28 118.387 40.4096 107.441 61.2515 100.175C78.8617 94.0353 102.705 90.3633 127.998 90.3633H128.002Z" stroke="#00D8FF" stroke-width="8.911"/>
<path fill-rule="evenodd" clip-rule="evenodd" d="M94.9811 109.438C107.495 87.7402 122.232 69.3783 136.23 57.1971C153.094 42.5206 169.144 36.7728 177.796 41.7623C186.813 46.9623 190.084 64.7496 185.259 88.1712C181.614 105.879 172.9 126.925 161.021 147.523C148.842 168.641 134.897 187.247 121.09 199.315C103.619 214.587 86.7284 220.114 77.8833 215.013C69.3003 210.067 66.0181 193.846 70.1356 172.161C73.6145 153.838 82.3451 131.349 94.977 109.438H94.9811Z" stroke="#00D8FF" stroke-width="8.911"/>
<path fill-rule="evenodd" clip-rule="evenodd" d="M95.0123 147.578C82.4633 125.904 73.9194 103.962 70.3531 85.7519C66.0602 63.8111 69.0954 47.0357 77.7401 42.0317C86.7485 36.8165 103.792 42.8662 121.674 58.7439C135.194 70.7481 149.077 88.8054 160.99 109.383C173.204 130.481 182.358 151.856 185.919 169.844C190.425 192.608 186.778 210.001 177.941 215.116C169.367 220.08 153.676 214.825 136.945 200.427C122.809 188.263 107.685 169.468 95.0123 147.578Z" stroke="#00D8FF" stroke-width="8.911"/>
</g>
<g clip-path="url(#clip1_206_98)">
<path d="M500 0H364C330.863 0 304 26.8629 304 60V196C304 229.137 330.863 256 364 256H500C533.137 256 560 229.137 560 196V60C560 26.8629 533.137 0 500 0Z" fill="#007ACC"/>
<path d="M360.611 128.849L360.53 139.333H377.19H393.851V186.673V234.012H405.635H417.419V186.673V139.333H434.079H450.739V129.052C450.739 123.363 450.618 118.609 450.455 118.487C450.333 118.325 430.056 118.243 405.472 118.284L360.733 118.406L360.611 128.849Z" fill="white"/>
<path d="M510.567 118.108C517.068 119.734 522.026 122.619 526.577 127.332C528.934 129.852 532.428 134.444 532.713 135.541C532.794 135.866 521.66 143.343 514.915 147.528C514.671 147.691 513.695 146.634 512.598 145.009C509.307 140.214 505.853 138.141 500.57 137.776C492.809 137.247 487.811 141.311 487.852 148.097C487.852 150.088 488.136 151.266 488.949 152.892C490.655 156.427 493.825 158.54 503.781 162.847C522.107 170.731 529.949 175.932 534.826 183.327C540.271 191.576 541.49 204.742 537.792 214.535C533.729 225.181 523.651 232.414 509.469 234.812C505.081 235.584 494.678 235.462 489.965 234.609C479.684 232.78 469.932 227.701 463.918 221.037C461.561 218.436 456.969 211.65 457.254 211.162C457.375 211 458.432 210.35 459.61 209.659C460.748 209.009 465.056 206.53 469.119 204.173L476.474 199.906L478.018 202.182C480.172 205.473 484.885 209.984 487.73 211.487C495.897 215.795 507.113 215.185 512.639 210.228C514.996 208.074 515.971 205.839 515.971 202.548C515.971 199.581 515.605 198.281 514.061 196.046C512.07 193.202 508.007 190.804 496.466 185.806C483.26 180.117 477.571 176.582 472.37 170.974C469.363 167.724 466.518 162.522 465.34 158.174C464.365 154.558 464.121 145.496 464.893 141.839C467.615 129.08 477.246 120.181 491.143 117.539C495.654 116.686 506.137 117.011 510.567 118.108Z" fill="white"/>
</g>
<g clip-path="url(#clip2_206_98)">
<path d="M804 0H668C634.863 0 608 26.8629 608 60V196C608 229.137 634.863 256 668 256H804C837.137 256 864 229.137 864 196V60C864 26.8629 837.137 0 804 0Z" fill="#262626"/>
<path d="M835.088 57.6016L741.256 225.389C739.318 228.854 734.341 228.874 732.375 225.427L636.682 57.6177C634.54 53.861 637.752 49.3105 642.01 50.0715L735.942 66.8613C736.541 66.9684 737.155 66.9674 737.754 66.8582L829.722 50.0955C833.965 49.3222 837.192 53.8374 835.088 57.6016Z" fill="url(#paint0_linear_206_98)"/>
<path d="M780.687 28.0492L711.249 41.6554C710.107 41.879 709.262 42.8462 709.194 44.007L704.922 116.148C704.822 117.847 706.382 119.166 708.04 118.783L727.373 114.322C729.182 113.905 730.816 115.498 730.445 117.317L724.701 145.443C724.314 147.336 726.092 148.954 727.94 148.393L739.881 144.765C741.732 144.203 743.511 145.826 743.119 147.721L733.991 191.9C733.42 194.664 737.096 196.171 738.629 193.801L739.653 192.219L796.235 79.2992C797.183 77.4085 795.549 75.2526 793.472 75.6534L773.573 79.494C771.703 79.8545 770.112 78.113 770.639 76.2834L783.628 31.2582C784.156 29.4255 782.559 27.6825 780.687 28.0492Z" fill="url(#paint1_linear_206_98)"/>
</g>
<g clip-path="url(#clip3_206_98)">
<path d="M1108 0H972C938.863 0 912 26.8629 912 60V196C912 229.137 938.863 256 972 256H1108C1141.14 256 1168 229.137 1168 196V60C1168 26.8629 1141.14 0 1108 0Z" fill="#262626"/>
<path d="M1118.11 98.7805H1069.33V50H1118.11V98.7805Z" fill="#F9AD00"/>
<path d="M1064.44 98.7805H1015.66V50H1064.44V98.7805Z" fill="#F9AD00"/>
<path d="M1010.78 98.7805H962V50H1010.78V98.7805Z" fill="#F9AD00"/>
<path d="M1118.11 152.439H1069.33V103.659H1118.11V152.439Z" fill="#F9AD00"/>
<path d="M1064.44 152.439H1015.66V103.659H1064.44V152.439Z" fill="#4E4E4E"/>
<path d="M1064.44 206.098H1015.66V157.317H1064.44V206.098Z" fill="#4E4E4E"/>
<path d="M1118.11 206.098H1069.33V157.317H1118.11V206.098Z" fill="#4E4E4E"/>
<path d="M1010.78 206.098H962V157.317H1010.78V206.098Z" fill="#4E4E4E"/>
</g>
<path d="M200.5 301H64.5C31.3629 301 4.5 327.863 4.5 361V497C4.5 530.137 31.3629 557 64.5 557H200.5C233.637 557 260.5 530.137 260.5 497V361C260.5 327.863 233.637 301 200.5 301Z" fill="#262626"/>
<g clip-path="url(#clip4_206_98)">
<path d="M501.5 301H365.5C332.363 301 305.5 327.863 305.5 361V497C305.5 530.137 332.363 557 365.5 557H501.5C534.637 557 561.5 530.137 561.5 497V361C561.5 327.863 534.637 301 501.5 301Z" fill="#262626"/>
<path d="M367.067 503.948L361.506 356.184C361.422 353.837 362.26 351.551 363.842 349.812C365.424 348.073 367.624 347.02 369.973 346.876L495.911 339.018C497.142 338.94 498.375 339.114 499.535 339.531C500.696 339.947 501.758 340.596 502.657 341.438C503.555 342.281 504.272 343.298 504.761 344.427C505.25 345.556 505.501 346.774 505.5 348.004V509.005C505.499 510.221 505.251 511.423 504.771 512.541C504.292 513.658 503.59 514.667 502.709 515.507C501.829 516.346 500.786 516.999 499.646 517.426C498.505 517.853 497.29 518.045 496.073 517.991L375.678 512.594C373.416 512.492 371.276 511.546 369.681 509.943C368.085 508.34 367.153 506.206 367.067 503.948Z" fill="#FF4785"/>
<path fill-rule="evenodd" clip-rule="evenodd" d="M485.774 339L468.473 340.08L467.632 360.485C467.621 360.74 467.683 360.993 467.81 361.214C467.937 361.436 468.124 361.616 468.349 361.735C468.574 361.854 468.828 361.906 469.082 361.885C469.335 361.865 469.578 361.772 469.781 361.619L477.661 355.606L484.323 360.881C484.524 361.041 484.767 361.14 485.022 361.165C485.277 361.191 485.535 361.143 485.763 361.027C485.992 360.91 486.183 360.73 486.314 360.508C486.444 360.286 486.508 360.031 486.499 359.774L485.774 339ZM472.306 407.316C469.145 409.791 445.541 411.474 445.541 407.955C446.042 394.517 440.06 393.931 436.729 393.931C433.577 393.931 428.258 394.886 428.258 402.086C428.258 409.422 436.031 413.562 445.156 418.422C458.113 425.326 473.81 433.688 473.81 454.713C473.81 474.875 457.513 486 436.738 486C415.292 486 396.55 477.278 398.663 447.045C399.496 443.499 426.763 444.345 426.763 447.045C426.422 459.52 429.252 463.192 436.398 463.192C441.887 463.192 444.376 460.15 444.376 455.037C444.376 447.288 436.281 442.715 426.96 437.459C414.343 430.339 399.496 421.96 399.496 402.725C399.496 383.536 412.623 370.737 436.067 370.737C459.51 370.737 472.306 383.338 472.306 407.316Z" fill="white"/>
</g>
<path d="M802.5 301H666.5C633.363 301 606.5 327.863 606.5 361V497C606.5 530.137 633.363 557 666.5 557H802.5C835.637 557 862.5 530.137 862.5 497V361C862.5 327.863 835.637 301 802.5 301Z" fill="#262626"/>
<path d="M734.5 506C777.026 506 811.5 471.526 811.5 429C811.5 386.474 777.026 352 734.5 352C691.974 352 657.5 386.474 657.5 429C657.5 471.526 691.974 506 734.5 506Z" stroke="white" stroke-width="5"/>
<path d="M709.639 502.399L810.815 443.985" stroke="white" stroke-width="4"/>
<path d="M659.191 415.02L760.366 356.606" stroke="white" stroke-width="4"/>
<path d="M687.521 490.641L779.499 437.537" stroke="white" stroke-width="4" stroke-linecap="round" stroke-linejoin="round"/>
<path d="M690.509 421.468L782.486 368.365" stroke="white" stroke-width="4" stroke-linecap="round"/>
<path d="M711.843 411.633L761.105 448.158" stroke="white" stroke-width="4" stroke-linecap="round" stroke-linejoin="round"/>
<path d="M730.238 401.016L779.498 437.539" stroke="white" stroke-width="4" stroke-linecap="round" stroke-linejoin="round"/>
<path d="M690.509 421.467L742.71 458.779" stroke="white" stroke-width="4" stroke-linecap="round" stroke-linejoin="round"/>
<path d="M1103.5 301H967.5C934.363 301 907.5 327.863 907.5 361V497C907.5 530.137 934.363 557 967.5 557H1103.5C1136.64 557 1163.5 530.137 1163.5 497V361C1163.5 327.863 1136.64 301 1103.5 301Z" fill="#262626"/>
<g clip-path="url(#clip5_206_98)">
<path d="M1118.85 346V429L1077.67 470.5L1036.49 512L995.306 470.5L1036.49 429L1118.85 346Z" fill="white"/>
<path d="M1118.85 429V512L1077.67 470.5L1118.85 429Z" fill="white"/>
<path d="M1036.49 429L995.306 470.5L954.126 512V346L995.306 387.5L1036.49 429Z" fill="white"/>
</g>
<path fill-rule="evenodd" clip-rule="evenodd" d="M87.8528 473.001C96.0561 461.128 112.75 453 132.01 453C151.269 453 167.964 461.128 176.167 473.001C167.964 484.872 151.269 493 132.01 493C112.75 493 96.0561 484.872 87.8528 473.001Z" fill="url(#paint2_radial_206_98)"/>
<path d="M86.8605 385C95.0638 373.128 111.758 365 131.017 365C150.277 365 166.972 373.128 175.175 385C166.972 396.872 150.277 405 131.017 405C111.758 405 95.0638 396.872 86.8605 385Z" fill="url(#paint3_radial_206_98)"/>
<path d="M132.506 428.994C120.532 440.523 104.291 447 87.3565 447C70.4223 447 54.1815 440.523 42.2072 428.994L87.3565 385L132.506 428.994Z" fill="url(#paint4_radial_206_98)"/>
<path d="M220.82 429.71C208.846 441.421 192.604 448 175.671 448C158.737 448 142.496 441.421 130.521 429.71L175.671 385L220.82 429.71Z" fill="url(#paint5_radial_206_98)"/>
<defs>
<linearGradient id="paint0_linear_206_98" x1="634.346" y1="44.075" x2="751.127" y2="202.673" gradientUnits="userSpaceOnUse">
<stop stop-color="#41D1FF"/>
<stop offset="1" stop-color="#BD34FE"/>
</linearGradient>
<linearGradient id="paint1_linear_206_98" x1="730.551" y1="31.7433" x2="751.676" y2="176.66" gradientUnits="userSpaceOnUse">
<stop stop-color="#FFEA83"/>
<stop offset="0.0833333" stop-color="#FFDD35"/>
<stop offset="1" stop-color="#FFA800"/>
</linearGradient>
<radialGradient id="paint2_radial_206_98" cx="0" cy="0" r="1" gradientUnits="userSpaceOnUse" gradientTransform="translate(132.01 472.999) rotate(92.8177) scale(12.922 28.4891)">
<stop stop-color="#845CE7"/>
<stop offset="1" stop-color="#AF73D8"/>
</radialGradient>
<radialGradient id="paint3_radial_206_98" cx="0" cy="0" r="1" gradientUnits="userSpaceOnUse" gradientTransform="translate(131.071 406.667) rotate(92.7327) scale(26.9191 57.5614)">
<stop stop-color="#845CE7"/>
<stop offset="1" stop-color="#AF73D8"/>
</radialGradient>
<radialGradient id="paint4_radial_206_98" cx="0" cy="0" r="1" gradientUnits="userSpaceOnUse" gradientTransform="translate(131.713 406.218) rotate(92.7996) scale(26.363 57.7482)">
<stop stop-color="#845CE7"/>
<stop offset="1" stop-color="#AF73D8"/>
</radialGradient>
<radialGradient id="paint5_radial_206_98" cx="0" cy="0" r="1" gradientUnits="userSpaceOnUse" gradientTransform="translate(131.314 406.553) rotate(92.7561) scale(26.7779 57.7501)">
<stop stop-color="#845CE7"/>
<stop offset="1" stop-color="#AF73D8"/>
</radialGradient>
<clipPath id="clip0_206_98">
<rect width="256" height="256" fill="white"/>
</clipPath>
<clipPath id="clip1_206_98">
<rect width="256" height="256" fill="white" transform="translate(304)"/>
</clipPath>
<clipPath id="clip2_206_98">
<rect width="256" height="256" fill="white" transform="translate(608)"/>
</clipPath>
<clipPath id="clip3_206_98">
<rect width="256" height="256" fill="white" transform="translate(912)"/>
</clipPath>
<clipPath id="clip4_206_98">
<rect width="256" height="256" fill="white" transform="translate(305.5 301)"/>
</clipPath>
<clipPath id="clip5_206_98">
<rect width="164.721" height="166" fill="white" transform="translate(954.126 346)"/>
</clipPath>
</defs>
</svg>
